<svg width="532" height="213" viewBox="0 0 532 213" fill="none" xmlns="http://www.w3.org/2000/svg">
<path d="M240.666 104.049C235.713 123.761 223.313 136.881 206.169 146.57C183.215 159.536 157.92 163.904 131.839 165.046C130.416 165.106 128.987 165.056 127.12 165.056C134.027 163.635 140.576 162.508 147.009 160.912C163.944 156.718 179.991 150.51 193.927 139.903C220.783 119.467 223.935 89.9961 201.772 64.6787C186.53 47.2701 166.469 37.1122 144.708 29.9214C109.466 18.2725 73.2753 15.9337 36.5029 20.2921C35.4164 20.4217 34.33 20.5763 33.1108 19.9829C41.8895 18.452 50.612 16.2628 59.4621 15.5298C75.3207 14.2183 91.358 12.2485 107.135 13.2957C143.994 15.7392 179.69 23.2243 210.484 44.9712C225.297 55.4283 236.999 68.304 240.682 86.6101C240.763 87.0091 242.696 95.9702 240.666 104.054V104.049Z" fill="white"></path>
<path d="M0.636975 111.174C4.7636 97.8048 15.2357 90.4394 27.3351 85.0887C51.5082 74.3972 76.7321 73.4049 102.441 78.4315C102.762 78.4963 103.068 78.6509 104.267 79.0897C99.7423 78.7755 96.141 78.4215 92.5245 78.3018C88.8774 78.1821 85.2098 78.1173 81.5678 78.3267C61.0979 79.4836 41.6329 83.6924 25.4885 97.0917C12.9301 107.519 10.0226 122.663 18.23 133.674C24.5857 142.191 33.5582 147.422 43.3264 150.938C55.5685 155.341 68.1983 158.707 80.6649 162.527C81.1342 162.672 81.5933 162.836 81.981 163.534C78.1961 163.15 74.3908 162.871 70.6213 162.353C66.8415 161.834 63.0617 161.216 59.3381 160.403C44.168 157.087 29.4927 152.404 16.2712 144.201C8.7525 139.538 3.44247 133.255 0.749195 124.603C-0.832083 119.517 0.570663 111.374 0.636975 111.169V111.174Z" fill="white"></path>
<path d="M92.0558 200.731C95.5448 185.726 97.376 171.553 95.504 157.291C94.5348 149.901 92.5913 142.466 89.8675 135.505C86.8273 127.735 80.6552 123.083 70.9482 123.576C78.9158 112.057 88.5718 102.946 100.804 95.965C99.4163 104.507 100.396 112.371 104.349 119.747C108.889 128.219 116.331 130.827 125.053 126.548C137.801 120.3 146.666 110.137 153.389 98.1043C154.588 95.96 155.144 96.2293 156.516 97.7453C162.78 104.677 165.422 112.89 165.595 121.976C165.606 122.494 164.958 123.482 164.601 123.487C152.267 123.711 143.529 130.827 135.332 138.507C117.122 155.566 103.829 176.011 93.3361 198.292C93.0963 198.801 92.8158 199.289 92.0609 200.726L92.0558 200.731Z" fill="white"></path>
<path d="M120.366 120.709C112.246 120.684 107.461 115.373 108.435 107.469C109.741 96.8526 122.009 87.0687 132.889 87.9713C140.127 88.5697 144.483 93.9254 143.494 101.012C142.055 111.269 130.935 120.739 120.372 120.709H120.366Z" fill="white"></path>
<path d="M365.838 47.2176H398.959V51.2913C396.361 51.5275 393.94 52.9444 391.697 55.5421C389.572 58.0217 387.505 61.1508 385.498 64.9293L363.713 105.312C362.768 107.201 361.941 108.913 361.233 110.448C360.643 111.983 360.347 114.286 360.347 117.356V147.288C360.347 153.074 361.233 156.735 363.004 158.27C364.775 159.805 368.022 160.69 372.746 160.926V165H322.267V160.926C325.692 160.69 328.171 159.805 329.706 158.27C331.241 156.735 332.009 153.074 332.009 147.288V117.356C332.009 114.286 331.773 111.983 331.3 110.448C330.828 108.913 330.061 107.201 328.998 105.312L306.15 64.9293C303.906 60.9146 302.017 57.9627 300.482 56.0734C299.065 54.1842 297.648 52.9444 296.231 52.354C294.814 51.7636 293.043 51.4094 290.918 51.2913V47.2176H343.344V51.2913C338.149 51.5275 335.374 52.9444 335.02 55.5421C334.784 58.0217 335.728 61.1508 337.854 64.9293L356.274 98.7585H356.628L375.048 64.9293C377.173 61.0327 377.469 57.8446 375.934 55.365C374.399 52.8853 371.033 51.5275 365.838 51.2913V47.2176ZM479.638 167.657C467.24 167.657 456.259 165.177 446.694 160.218C437.13 155.259 429.632 148.292 424.201 139.318C418.769 130.226 416.053 119.717 416.053 107.791C416.053 97.991 417.824 89.2532 421.367 81.5782C424.909 73.7851 429.75 67.1137 435.89 61.564C442.148 56.0144 449.292 51.8226 457.321 48.9888C465.469 46.0369 474.147 44.5609 483.357 44.5609C490.324 44.5609 496.995 45.2103 503.372 46.5092C509.748 47.808 514.825 49.343 518.604 51.1142V79.0986H514.53C512.168 71.8958 509.335 66.4052 506.028 62.6267C502.722 58.7302 499.003 56.0144 494.87 54.4794C490.855 52.9444 486.605 52.1769 482.118 52.1769C459.329 52.1769 447.934 68.7077 447.934 101.769C447.934 112.633 449.056 122.492 451.299 131.348C453.661 140.204 457.262 147.229 462.104 152.425C467.063 157.502 473.38 160.041 481.055 160.041C487.313 160.041 492.981 158.506 498.058 155.436C503.135 152.248 507.445 148.056 510.988 142.86C514.648 137.665 517.246 132.056 518.781 126.034H522.854L521.438 152.956C517.541 157.207 512.05 160.749 504.966 163.583C497.881 166.299 489.438 167.657 479.638 167.657Z" fill="white"></path>
</svg>