<svg width="252" height="345" viewBox="0 0 252 345" fill="none" xmlns="http://www.w3.org/2000/svg">
<path d="M250.749 91.0486C245.796 110.761 233.395 123.881 216.251 133.57C193.297 146.536 168.002 150.904 141.921 152.046C140.498 152.106 139.07 152.056 137.203 152.056C144.109 150.635 150.659 149.508 157.091 147.912C174.026 143.718 190.073 137.51 204.009 126.903C230.865 106.467 234.018 76.9961 211.854 51.6787C196.613 34.2701 176.551 24.1122 154.791 16.9214C119.548 5.27247 83.3576 2.93371 46.5853 7.29208C45.4988 7.42173 44.4123 7.57632 43.1932 6.9829C51.9718 5.45199 60.6943 3.26283 69.5444 2.52978C85.4031 1.21828 101.44 -0.751463 117.217 0.295743C154.076 2.73922 189.772 10.2243 220.567 31.9712C235.38 42.4283 247.081 55.304 250.764 73.6101C250.845 74.0091 252.779 82.9702 250.749 91.0536V91.0486Z" fill="#426930"></path>
<path d="M10.7193 98.1741C14.8459 84.8048 25.3181 77.4394 37.4174 72.0887C61.5905 61.3972 86.8145 60.4049 112.523 65.4315C112.844 65.4963 113.15 65.6509 114.349 66.0897C109.825 65.7756 106.223 65.4215 102.607 65.3018C98.9597 65.1821 95.2921 65.1173 91.6501 65.3267C71.1802 66.4837 51.7152 70.6924 35.5709 84.0917C23.0125 94.5189 20.105 109.663 28.3123 120.674C34.668 129.191 43.6405 134.422 53.4087 137.938C65.6509 142.341 78.2807 145.707 90.7473 149.527C91.2165 149.672 91.6756 149.836 92.0633 150.534C88.2784 150.15 84.4732 149.871 80.7036 149.353C76.9238 148.834 73.1441 148.216 69.4204 147.403C54.2503 144.087 39.5751 139.404 26.3535 131.201C18.8348 126.538 13.5248 120.255 10.8315 111.603C9.25025 106.517 10.653 98.3736 10.7193 98.1691V98.1741Z" fill="#426930"></path>
<path d="M102.138 187.731C105.627 172.726 107.458 158.553 105.586 144.291C104.617 136.901 102.674 129.466 99.9496 122.505C96.9095 114.735 90.7374 110.083 81.0304 110.576C88.998 99.0571 98.654 89.9464 110.886 82.965C109.499 91.5073 110.478 99.3713 114.431 106.747C118.971 115.219 126.413 117.827 135.136 113.548C147.883 107.3 156.748 97.1372 163.471 85.1043C164.67 82.9601 165.226 83.2293 166.598 84.7453C172.862 91.6768 175.504 99.8899 175.678 108.976C175.688 109.494 175.04 110.482 174.683 110.487C162.349 110.711 153.611 117.827 145.414 125.507C127.204 142.566 113.911 163.011 103.418 185.292C103.179 185.801 102.898 186.289 102.143 187.726L102.138 187.731Z" fill="#426930"></path>
<path d="M130.449 107.709C122.328 107.684 117.543 102.373 118.518 94.4693C119.824 83.8526 132.091 74.0688 142.971 74.9713C150.21 75.5697 154.566 80.9255 153.576 88.0116C152.138 98.2692 141.018 107.739 130.454 107.709H130.449Z" fill="#426930"></path>
<path d="M74.9202 223.922H108.041V227.996C105.443 228.232 103.023 229.649 100.779 232.247C98.6538 234.726 96.5875 237.855 94.5801 241.634L72.7948 282.016C71.8502 283.906 71.0237 285.618 70.3152 287.153C69.7248 288.688 69.4296 290.99 69.4296 294.06V323.993C69.4296 329.779 70.3152 333.439 72.0864 334.974C73.8575 336.509 77.1046 337.395 81.8278 337.631V341.705H31.3496V337.631C34.7738 337.395 37.2535 336.509 38.7885 334.974C40.3235 333.439 41.091 329.779 41.091 323.993V294.06C41.091 290.99 40.8548 288.688 40.3825 287.153C39.9102 285.618 39.1427 283.906 38.08 282.016L15.232 241.634C12.9885 237.619 11.0993 234.667 9.56428 232.778C8.14735 230.889 6.73042 229.649 5.31349 229.059C3.89656 228.468 2.1254 228.114 0 227.996V223.922H52.4264V227.996C47.231 228.232 44.4562 229.649 44.102 232.247C43.8658 234.726 44.8104 237.855 46.9358 241.634L65.3559 275.463H65.7102L84.1303 241.634C86.2557 237.737 86.5509 234.549 85.0158 232.07C83.4808 229.59 80.1156 228.232 74.9202 227.996V223.922Z" fill="#426930"></path>
<path d="M188.72 344.361C176.322 344.361 165.341 341.882 155.777 336.922C146.212 331.963 138.714 324.997 133.283 316.023C127.851 306.931 125.135 296.422 125.135 284.496C125.135 274.696 126.907 265.958 130.449 258.283C133.991 250.49 138.832 243.818 144.973 238.269C151.231 232.719 158.374 228.527 166.404 225.693C174.551 222.741 183.23 221.266 192.44 221.266C199.406 221.266 206.078 221.915 212.454 223.214C218.83 224.513 223.907 226.048 227.686 227.819V255.803H223.612C221.251 248.6 218.417 243.11 215.111 239.331C211.804 235.435 208.085 232.719 203.952 231.184C199.938 229.649 195.687 228.882 191.2 228.882C168.411 228.882 157.016 245.412 157.016 278.474C157.016 289.337 158.138 299.197 160.382 308.053C162.743 316.908 166.345 323.934 171.186 329.129C176.145 334.207 182.462 336.745 190.137 336.745C196.395 336.745 202.063 335.21 207.14 332.14C212.218 328.952 216.528 324.761 220.07 319.565C223.73 314.37 226.328 308.761 227.863 302.739H231.937L230.52 329.661C226.623 333.912 221.133 337.454 214.048 340.288C206.963 343.004 198.521 344.361 188.72 344.361Z" fill="#426930"></path>
</svg>