<svg width="523" height="188" viewBox="0 0 523 188" fill="none" xmlns="http://www.w3.org/2000/svg">
<path d="M240.666 91.0486C235.713 110.761 223.313 123.881 206.169 133.57C183.215 146.536 157.919 150.904 131.839 152.046C130.415 152.106 128.987 152.056 127.12 152.056C134.027 150.635 140.577 149.508 147.009 147.912C163.944 143.718 179.991 137.51 193.927 126.903C220.783 106.467 223.935 76.9961 201.772 51.6786C186.53 34.2701 166.469 24.1122 144.708 16.9214C109.466 5.27246 73.2752 2.93371 36.5029 7.29208C35.4164 7.42173 34.3299 7.57632 33.1108 6.98291C41.8894 5.45199 50.6121 3.26283 59.4621 2.52978C75.3208 1.21828 91.3579 -0.751463 107.135 0.295743C143.994 2.73922 179.69 10.2243 210.484 31.9713C225.297 42.4284 236.999 55.304 240.682 73.6101C240.763 74.0091 242.696 82.9702 240.666 91.0536V91.0486Z" fill="black"></path>
<path d="M0.636915 98.1741C4.76354 84.8048 15.2358 77.4394 27.3352 72.0887C51.5083 61.3972 76.7321 60.4049 102.441 65.4315C102.762 65.4963 103.068 65.6509 104.267 66.0897C99.7423 65.7756 96.1411 65.4215 92.5246 65.3018C88.8775 65.1821 85.2099 65.1173 81.5678 65.3268C61.0979 66.4837 41.6328 70.6925 25.4885 84.0917C12.9301 94.5189 10.0226 109.663 18.2299 120.674C24.5856 129.191 33.5582 134.422 43.3264 137.938C55.5685 142.341 68.1984 145.707 80.665 149.527C81.1343 149.672 81.5932 149.836 81.9809 150.534C78.196 150.15 74.3909 149.871 70.6213 149.353C66.8415 148.834 63.0617 148.216 59.3381 147.403C44.168 144.087 29.4927 139.404 16.2712 131.201C8.75247 126.538 3.44249 120.255 0.749219 111.603C-0.832058 106.517 0.570603 98.3736 0.636915 98.1691V98.1741Z" fill="black"></path>
<path d="M92.0556 187.731C95.5446 172.726 97.3759 158.553 95.5039 144.291C94.5347 136.901 92.5913 129.466 89.8674 122.505C86.8273 114.735 80.6552 110.083 70.9482 110.576C78.9158 99.0571 88.5717 89.9464 100.804 82.9651C99.4162 91.5073 100.396 99.3713 104.349 106.747C108.889 115.219 116.331 117.827 125.053 113.548C137.801 107.3 146.666 97.1372 153.389 85.1043C154.588 82.9601 155.143 83.2293 156.516 84.7453C162.779 91.6768 165.422 99.8899 165.595 108.976C165.605 109.494 164.958 110.482 164.601 110.487C152.267 110.711 143.529 117.827 135.331 125.507C117.121 142.566 103.828 163.011 93.3359 185.292C93.0961 185.801 92.8157 186.289 92.0607 187.726L92.0556 187.731Z" fill="black"></path>
<path d="M120.366 107.709C112.246 107.684 107.461 102.373 108.436 94.4693C109.741 83.8527 122.009 74.0688 132.889 74.9713C140.127 75.5697 144.483 80.9255 143.494 88.0116C142.055 98.2692 130.935 107.739 120.372 107.709H120.366Z" fill="black"></path>
<path d="M365.838 34.2176H398.959V38.2913C396.361 38.5274 393.94 39.9444 391.697 42.5421C389.572 45.0217 387.505 48.1508 385.498 51.9293L363.713 92.3118C362.768 94.201 361.941 95.9131 361.233 97.4482C360.642 98.9832 360.347 101.286 360.347 104.356V134.288C360.347 140.074 361.233 143.735 363.004 145.27C364.775 146.805 368.022 147.69 372.746 147.926V152H322.267V147.926C325.692 147.69 328.171 146.805 329.706 145.27C331.241 143.735 332.009 140.074 332.009 134.288V104.356C332.009 101.286 331.773 98.9832 331.3 97.4482C330.828 95.9131 330.06 94.201 328.998 92.3118L306.15 51.9293C303.906 47.9146 302.017 44.9627 300.482 43.0735C299.065 41.1842 297.648 39.9444 296.231 39.354C294.814 38.7636 293.043 38.4094 290.918 38.2913V34.2176H343.344V38.2913C338.149 38.5274 335.374 39.9444 335.02 42.5421C334.784 45.0217 335.728 48.1508 337.854 51.9293L356.274 85.7585H356.628L375.048 51.9293C377.173 48.0327 377.469 44.8446 375.934 42.365C374.399 39.8854 371.033 38.5274 365.838 38.2913V34.2176Z" fill="black"></path>
<path d="M479.638 154.657C467.24 154.657 456.259 152.177 446.694 147.218C437.13 142.259 429.632 135.292 424.201 126.318C418.769 117.226 416.053 106.717 416.053 94.7914C416.053 84.991 417.824 76.2532 421.367 68.5782C424.909 60.7851 429.75 54.1137 435.89 48.5641C442.148 43.0144 449.292 38.8227 457.321 35.9888C465.469 33.0369 474.147 31.5609 483.357 31.5609C490.324 31.5609 496.995 32.2103 503.372 33.5092C509.748 34.808 514.825 36.343 518.604 38.1142V66.0986H514.53C512.168 58.8958 509.334 53.4052 506.028 49.6267C502.722 45.7302 499.003 43.0144 494.87 41.4794C490.855 39.9444 486.605 39.1769 482.118 39.1769C459.329 39.1769 447.934 55.7078 447.934 88.7695C447.934 99.6326 449.056 109.492 451.299 118.348C453.661 127.204 457.262 134.229 462.103 139.425C467.063 144.502 473.38 147.041 481.055 147.041C487.313 147.041 492.981 145.506 498.058 142.436C503.135 139.248 507.445 135.056 510.987 129.86C514.648 124.665 517.246 119.056 518.781 113.034H522.854L521.437 139.956C517.541 144.207 512.05 147.749 504.966 150.583C497.881 153.299 489.438 154.657 479.638 154.657Z" fill="black"></path>
</svg>