<svg width="253" height="390" viewBox="0 0 253 390" fill="none" xmlns="http://www.w3.org/2000/svg">
<path d="M251.634 91.0486C246.681 110.761 234.281 123.881 217.137 133.57C194.183 146.536 168.887 150.904 142.807 152.046C141.383 152.106 139.955 152.056 138.088 152.056C144.995 150.635 151.544 149.508 157.977 147.912C174.912 143.718 190.959 137.51 204.895 126.903C231.751 106.467 234.903 76.9961 212.74 51.6787C197.498 34.2701 177.437 24.1122 155.676 16.9214C120.434 5.27247 84.2432 2.93371 47.4708 7.29208C46.3843 7.42173 45.2978 7.57632 44.0787 6.9829C52.8574 5.45199 61.5799 3.26283 70.43 2.52978C86.2886 1.21828 102.326 -0.751463 118.103 0.295743C154.962 2.73922 190.658 10.2243 221.452 31.9712C236.265 42.4283 247.967 55.304 251.649 73.6101C251.731 74.0091 253.664 82.9702 251.634 91.0536V91.0486Z" fill="white"></path>
<path d="M11.605 98.1741C15.7316 84.8048 26.2038 77.4394 38.3031 72.0887C62.4762 61.3972 87.7002 60.4049 113.409 65.4315C113.73 65.4963 114.036 65.6509 115.235 66.0897C110.71 65.7756 107.109 65.4215 103.493 65.3018C99.8454 65.1821 96.1778 65.1173 92.5358 65.3268C72.0659 66.4837 52.6009 70.6924 36.4566 84.0917C23.8982 94.5189 20.9906 109.663 29.198 120.674C35.5537 129.191 44.5262 134.422 54.2944 137.938C66.5365 142.341 79.1664 145.707 91.6329 149.527C92.1022 149.672 92.5613 149.836 92.949 150.534C89.1641 150.15 85.3588 149.871 81.5893 149.353C77.8095 148.834 74.0298 148.216 70.3061 147.403C55.136 144.087 40.4608 139.404 27.2392 131.201C19.7205 126.538 14.4105 120.255 11.7172 111.603C10.1359 106.517 11.5387 98.3736 11.605 98.1691V98.1741Z" fill="white"></path>
<path d="M103.024 187.731C106.513 172.726 108.344 158.553 106.472 144.291C105.503 136.901 103.559 129.466 100.835 122.505C97.7951 114.735 91.623 110.083 81.916 110.576C89.8836 99.0571 99.5396 89.9464 111.772 82.965C110.384 91.5073 111.363 99.3713 115.317 106.747C119.856 115.219 127.299 117.827 136.021 113.548C148.768 107.3 157.634 97.1372 164.357 85.1043C165.555 82.9601 166.111 83.2293 167.484 84.7453C173.747 91.6768 176.39 99.8899 176.563 108.976C176.573 109.494 175.926 110.482 175.568 110.487C163.234 110.711 154.497 117.827 146.3 125.507C128.089 142.566 114.796 163.011 104.304 185.292C104.064 185.801 103.784 186.289 103.029 187.726L103.024 187.731Z" fill="white"></path>
<path d="M131.334 107.709C123.214 107.684 118.429 102.373 119.403 94.4693C120.709 83.8526 132.977 74.0688 143.857 74.9713C151.095 75.5697 155.451 80.9255 154.462 88.0116C153.023 98.2692 141.903 107.739 131.339 107.709H131.334Z" fill="white"></path>
<path d="M75.8058 223.922H108.927V227.996C106.329 228.232 103.908 229.649 101.665 232.247C99.5394 234.726 97.473 237.855 95.4657 241.634L73.6804 282.016C72.7358 283.906 71.9092 285.618 71.2008 287.153C70.6104 288.688 70.3152 290.99 70.3152 294.06V323.993C70.3152 329.779 71.2008 333.439 72.9719 334.974C74.7431 336.509 77.9902 337.395 82.7133 337.631V341.705H32.2352V337.631C35.6594 337.395 38.1391 336.509 39.6741 334.974C41.2091 333.439 41.9766 329.779 41.9766 323.993V294.06C41.9766 290.99 41.7404 288.688 41.2681 287.153C40.7958 285.618 40.0283 283.906 38.9656 282.016L16.1176 241.634C13.8741 237.619 11.9849 234.667 10.4499 232.778C9.03293 230.889 7.616 229.649 6.19907 229.059C4.78214 228.468 3.01098 228.114 0.885582 227.996V223.922H53.312V227.996C48.1166 228.232 45.3418 229.649 44.9876 232.247C44.7514 234.726 45.696 237.855 47.8214 241.634L66.2415 275.463H66.5957L85.0159 241.634C87.1412 237.737 87.4364 234.549 85.9014 232.07C84.3664 229.59 81.0012 228.232 75.8058 227.996V223.922ZM189.606 344.361C177.208 344.361 166.226 341.882 156.662 336.923C147.098 331.963 139.6 324.997 134.168 316.023C128.737 306.931 126.021 296.422 126.021 284.496C126.021 274.696 127.792 265.958 131.335 258.283C134.877 250.49 139.718 243.818 145.858 238.269C152.116 232.719 159.26 228.527 167.289 225.693C175.437 222.742 184.115 221.266 193.325 221.266C200.292 221.266 206.963 221.915 213.339 223.214C219.716 224.513 224.793 226.048 228.571 227.819V255.803H224.498C222.136 248.6 219.302 243.11 215.996 239.331C212.69 235.435 208.971 232.719 204.838 231.184C200.823 229.649 196.572 228.882 192.085 228.882C169.296 228.882 157.902 245.412 157.902 278.474C157.902 289.337 159.024 299.197 161.267 308.053C163.629 316.908 167.23 323.934 172.071 329.129C177.031 334.207 183.348 336.745 191.023 336.745C197.281 336.745 202.949 335.21 208.026 332.14C213.103 328.952 217.413 324.761 220.955 319.565C224.616 314.37 227.214 308.761 228.749 302.739H232.822L231.405 329.661C227.509 333.912 222.018 337.454 214.933 340.288C207.849 343.004 199.406 344.361 189.606 344.361Z" fill="white"></path>
</svg>