<svg width="1734" height="217" viewBox="0 0 1734 217" fill="none" xmlns="http://www.w3.org/2000/svg">
<path d="M270.999 104.875C265.422 127.581 251.459 142.693 232.153 153.854C206.305 168.788 177.821 173.82 148.452 175.135C146.85 175.204 145.241 175.146 143.139 175.146C150.916 173.509 158.292 172.211 165.535 170.373C184.605 165.543 202.675 158.391 218.368 146.174C248.61 122.635 252.159 88.6885 227.202 59.5265C210.039 39.4743 187.448 27.7738 162.944 19.491C123.259 6.07317 82.5058 3.37916 41.0976 8.39937C39.8741 8.54872 38.6507 8.72683 37.2779 8.04329C47.1632 6.2799 56.9854 3.75826 66.9511 2.9139C84.8091 1.40324 102.868 -0.865572 120.634 0.340658C162.14 3.1552 202.336 11.7769 237.012 36.8263C253.693 48.8713 266.87 63.7022 271.017 84.7883C271.109 85.2478 273.286 95.5697 270.999 104.881V104.875Z" fill="black"></path>
<path d="M0.717277 113.083C5.36414 97.6832 17.1565 89.1994 30.7812 83.0361C58.0018 70.721 86.4056 69.578 115.355 75.3679C115.717 75.4426 116.062 75.6206 117.412 76.1261C112.317 75.7642 108.261 75.3564 104.189 75.2186C100.082 75.0807 95.9521 75.006 91.8509 75.2473C68.8004 76.5799 46.8815 81.4278 28.7018 96.8618C14.5602 108.872 11.2862 126.317 20.5282 139C27.6852 148.81 37.7888 154.836 48.7885 158.885C62.574 163.957 76.796 167.834 90.8342 172.234C91.3627 172.401 91.8796 172.59 92.3162 173.394C88.0542 172.952 83.7692 172.63 79.5244 172.033C75.2681 171.436 71.0118 170.723 66.8187 169.787C49.7362 165.967 33.2108 160.574 18.3225 151.125C9.85591 145.754 3.87645 138.517 0.843644 128.551C-0.936983 122.692 0.642606 113.312 0.717277 113.077V113.083Z" fill="black"></path>
<path d="M103.663 216.239C107.591 198.955 109.654 182.631 107.546 166.203C106.454 157.691 104.266 149.126 101.198 141.108C97.7751 132.159 90.8249 126.8 79.8941 127.368C88.8662 114.1 99.7395 103.605 113.514 95.5639C111.951 105.403 113.054 114.462 117.506 122.957C122.618 132.716 130.998 135.72 140.82 130.792C155.174 123.595 165.157 111.888 172.728 98.0282C174.078 95.5583 174.704 95.8684 176.249 97.6146C183.303 105.599 186.278 115.059 186.473 125.525C186.485 126.122 185.755 127.259 185.353 127.265C171.464 127.523 161.625 135.72 152.394 144.566C131.888 164.216 116.92 187.766 105.104 213.43C104.834 214.016 104.518 214.579 103.668 216.233L103.663 216.239Z" fill="black"></path>
<path d="M135.533 124.066C126.389 124.037 121.001 117.92 122.098 108.816C123.568 96.5868 137.383 85.3171 149.634 86.3568C157.785 87.046 162.69 93.215 161.576 101.377C159.956 113.192 147.435 124.1 135.539 124.066H135.533Z" fill="black"></path>
<path d="M416.032 51.5623H447.052V55.3776C444.619 55.5988 442.352 56.9259 440.251 59.3588C438.26 61.6812 436.325 64.6118 434.445 68.1506L414.042 105.972C413.157 107.741 412.383 109.345 411.719 110.782C411.166 112.22 410.89 114.376 410.89 117.252V145.286C410.89 150.705 411.719 154.133 413.378 155.57C415.037 157.008 418.078 157.837 422.502 158.059V161.874H375.225V158.059C378.432 157.837 380.755 157.008 382.192 155.57C383.63 154.133 384.349 150.705 384.349 145.286V117.252C384.349 114.376 384.128 112.22 383.685 110.782C383.243 109.345 382.524 107.741 381.529 105.972L360.13 68.1506C358.029 64.3906 356.26 61.6259 354.822 59.8565C353.495 58.0871 352.168 56.9259 350.841 56.373C349.514 55.8201 347.855 55.4882 345.864 55.3776V51.5623H394.965V55.3776C390.099 55.5988 387.501 56.9259 387.169 59.3588C386.948 61.6812 387.832 64.6118 389.823 68.1506L407.075 99.8341H407.406L424.658 68.1506C426.649 64.5012 426.925 61.5153 425.488 59.193C424.05 56.8706 420.898 55.5988 416.032 55.3776V51.5623Z" fill="black"></path>
<path d="M488.985 163.201C488.543 160.326 488.101 157.948 487.658 156.068C487.216 154.078 486.552 151.645 485.668 148.769L462.776 68.1506C461.67 64.28 460.675 61.5153 459.79 59.8565C458.905 58.0871 457.91 56.9259 456.804 56.373C455.698 55.8201 454.261 55.4882 452.491 55.3776V51.5623H499.27L499.104 55.3776C494.791 55.5988 492.082 56.9259 490.976 59.3588C489.87 61.6812 489.87 64.6118 490.976 68.1506L506.237 120.403H506.569L536.428 50.2353H548.039C549.035 53.3318 549.975 56.3177 550.859 59.193C551.855 62.0682 553.071 65.0541 554.509 68.1506L577.732 120.403H578.396L594.652 68.1506C595.869 64.3906 595.482 61.4047 593.491 59.193C591.611 56.8706 588.072 55.5988 582.875 55.3776L583.04 51.5623H615.719V55.3776C613.065 55.5988 610.743 56.8706 608.752 59.193C606.872 61.4047 605.379 64.3906 604.273 68.1506L580.386 148.769C579.612 151.645 579.004 154.078 578.562 156.068C578.119 157.948 577.622 160.326 577.069 163.201H565.457C564.793 160.326 564.13 157.948 563.466 156.068C562.803 154.078 561.863 151.645 560.646 148.769L533.11 85.5682H532.612L505.408 148.769C504.191 151.755 503.251 154.188 502.588 156.068C502.035 157.948 501.427 160.326 500.763 163.201H488.985Z" fill="black"></path>
<path d="M702.168 145.286C703.717 149.046 704.988 151.81 705.984 153.58C707.09 155.349 708.251 156.51 709.467 157.063C710.684 157.506 712.177 157.837 713.946 158.059V161.874H667.665V158.059C672.088 157.837 674.521 156.51 674.964 154.078C675.517 151.645 675.13 148.714 673.803 145.286L665.508 123.721C664.845 124.274 663.96 124.661 662.854 124.882C661.859 124.993 660.753 125.048 659.537 125.048H640.792C638.47 125.048 636.7 125.325 635.484 125.878C634.267 126.431 633.217 127.813 632.332 130.025L626.36 145.286C624.923 148.935 625.033 151.921 626.692 154.243C628.351 156.566 631.613 157.837 636.479 158.059V161.874H606.289V158.059C608.722 157.837 610.767 156.621 612.426 154.409C614.196 152.087 615.799 149.046 617.237 145.286L649.086 64.6671C650.303 61.7918 651.353 58.9718 652.238 56.2071C653.233 53.4424 654.118 50.6223 654.892 47.747H664.513C665.287 50.6223 666.172 53.4424 667.167 56.2071C668.163 58.9718 669.213 61.7918 670.319 64.6671L702.168 145.286ZM658.707 117.915C660.256 117.915 661.251 117.694 661.693 117.252C662.246 116.699 662.191 115.593 661.527 113.934L650.081 85.5682H649.75L636.811 118.579C637.364 118.247 638.027 118.081 638.801 118.081C639.576 117.97 640.46 117.915 641.456 117.915H658.707Z" fill="black"></path>
<path d="M783.553 163.201C782.668 160.657 781.562 158.059 780.235 155.405C779.019 152.64 777.36 149.046 775.259 144.622L745.4 82.2506H745.068L742.082 145.286C741.972 149.046 742.857 152.087 744.737 154.409C746.617 156.621 750.045 157.837 755.021 158.059V161.874H724.333V158.059C727.54 157.837 729.807 156.621 731.134 154.409C732.572 152.087 733.346 149.046 733.457 145.286L736.94 68.1506C737.161 64.28 736.885 61.5153 736.111 59.8565C735.447 58.1977 734.231 57.147 732.461 56.7047C730.692 56.1517 728.314 55.7094 725.328 55.3776V51.5623H760.827C761.712 54.4376 762.707 57.1471 763.813 59.6906C765.029 62.2342 766.356 65.0541 767.794 68.1506L796.326 127.868H796.658L823.199 68.1506C825.742 62.5106 827.678 56.9811 829.005 51.5623H864.172V55.3776C862.07 55.4882 860.301 55.8201 858.863 56.373C857.426 56.9259 856.375 58.0871 855.712 59.8565C855.159 61.5153 854.937 64.28 855.048 68.1506L858.532 145.286C858.753 148.825 859.195 151.479 859.859 153.248C860.633 155.017 861.849 156.234 863.508 156.897C865.167 157.45 867.379 157.837 870.143 158.059V161.874H822.867V158.059C826.406 157.837 828.839 157.008 830.166 155.57C831.603 154.133 832.212 150.705 831.99 145.286L829.17 77.44H828.839L798.814 144.622C796.713 149.267 795.165 152.916 794.169 155.57C793.285 158.114 792.511 160.657 791.847 163.201H783.553Z" fill="black"></path>
<path d="M998.745 164.043C987.319 164.043 977.198 161.758 968.383 157.187C959.568 152.617 952.658 146.196 947.652 137.925C942.646 129.546 940.143 119.86 940.143 108.869C940.143 99.8362 941.775 91.7831 945.04 84.7094C948.305 77.5269 952.767 71.3782 958.425 66.2634C964.193 61.1486 970.777 57.2852 978.177 54.6734C985.686 51.9528 993.685 50.5925 1002.17 50.5925C1008.59 50.5925 1014.74 51.1911 1020.62 52.3881C1026.5 53.5852 1031.18 55 1034.66 56.6324V82.424H1030.9C1028.73 75.7857 1026.12 70.7253 1023.07 67.2429C1020.02 63.6516 1016.59 61.1486 1012.78 59.7338C1009.08 58.3191 1005.17 57.6118 1001.03 57.6118C980.027 57.6118 969.526 72.8474 969.526 103.319C969.526 113.331 970.56 122.418 972.627 130.579C974.804 138.741 978.123 145.217 982.585 150.005C987.155 154.684 992.978 157.024 1000.05 157.024C1005.82 157.024 1011.04 155.609 1015.72 152.78C1020.4 149.842 1024.37 145.978 1027.64 141.19C1031.01 136.402 1033.41 131.232 1034.82 125.682H1038.58L1037.27 150.495C1033.68 154.412 1028.62 157.677 1022.09 160.289C1015.56 162.792 1007.78 164.043 998.745 164.043Z" fill="black"></path>
<path d="M1060.3 161.595V157.84C1063.45 157.623 1065.74 156.806 1067.15 155.392C1068.57 153.977 1069.27 150.603 1069.27 145.271V69.365C1069.27 64.0325 1068.46 60.6588 1066.82 59.2441C1065.3 57.7205 1062.31 56.9044 1057.85 56.7956V53.0411H1104.37V56.7956C1101.21 56.9044 1098.93 57.7205 1097.51 59.2441C1096.1 60.6588 1095.39 64.0325 1095.39 69.365V98.2581C1096.26 97.6052 1097.3 97.1699 1098.49 96.9522C1099.8 96.7346 1101.32 96.6258 1103.06 96.6258H1133.92C1136.85 96.6258 1138.92 96.1361 1140.12 95.1567C1141.32 94.1773 1141.91 92.2184 1141.91 89.2801V69.365C1141.91 64.0325 1141.1 60.6588 1139.47 59.2441C1137.94 57.7205 1134.95 56.9044 1130.49 56.7956V53.0411H1177.01V56.7956C1173.85 56.9044 1171.57 57.7205 1170.15 59.2441C1168.74 60.6588 1168.03 64.0325 1168.03 69.365V145.271C1168.03 150.603 1168.85 153.977 1170.48 155.392C1172.11 156.806 1175.11 157.623 1179.46 157.84V161.595H1132.94V157.84C1136.09 157.623 1138.38 156.806 1139.79 155.392C1141.21 153.977 1141.91 150.603 1141.91 145.271V101.849C1141.04 102.611 1139.96 103.101 1138.65 103.319C1137.34 103.536 1135.87 103.645 1134.24 103.645H1103.39C1100.45 103.645 1098.38 104.135 1097.19 105.114C1095.99 106.094 1095.39 107.998 1095.39 110.828V145.271C1095.39 150.603 1096.21 153.977 1097.84 155.392C1099.47 156.806 1102.47 157.623 1106.82 157.84V161.595H1060.3Z" fill="black"></path>
<path d="M1282.31 145.271C1283.83 148.971 1285.08 151.692 1286.06 153.433C1287.15 155.174 1288.29 156.317 1289.49 156.861C1290.69 157.296 1292.16 157.623 1293.9 157.84V161.595H1248.35V157.84C1252.71 157.623 1255.1 156.317 1255.54 153.923C1256.08 151.528 1255.7 148.644 1254.39 145.271L1246.23 124.05C1245.58 124.594 1244.71 124.975 1243.62 125.193C1242.64 125.301 1241.55 125.356 1240.36 125.356H1221.91C1219.63 125.356 1217.88 125.628 1216.69 126.172C1215.49 126.716 1214.46 128.076 1213.59 130.253L1207.71 145.271C1206.29 148.862 1206.4 151.8 1208.04 154.086C1209.67 156.371 1212.88 157.623 1217.67 157.84V161.595H1187.96V157.84C1190.35 157.623 1192.36 156.426 1194 154.249C1195.74 151.964 1197.32 148.971 1198.73 145.271L1230.07 65.937C1231.27 63.1075 1232.3 60.3324 1233.17 57.6118C1234.15 54.8911 1235.02 52.116 1235.79 49.2866H1245.25C1246.02 52.116 1246.89 54.8911 1247.87 57.6118C1248.84 60.3324 1249.88 63.1075 1250.97 65.937L1282.31 145.271ZM1239.54 118.337C1241.06 118.337 1242.04 118.119 1242.48 117.684C1243.02 117.139 1242.97 116.051 1242.32 114.419L1231.05 86.505H1230.73L1217.99 118.989C1218.54 118.663 1219.19 118.5 1219.95 118.5C1220.71 118.391 1221.58 118.337 1222.56 118.337H1239.54Z" fill="black"></path>
<path d="M1288.56 53.0411H1381.61V79.9754H1377.85C1377.2 74.0988 1375.46 69.3105 1372.63 65.6104C1369.8 61.9104 1364.96 60.0604 1358.1 60.0604H1348.14V145.271C1348.14 150.603 1348.96 153.977 1350.59 155.392C1352.22 156.806 1355.22 157.623 1359.57 157.84V161.595H1313.05V157.84C1316.2 157.623 1318.49 156.806 1319.9 155.392C1321.32 153.977 1322.03 150.603 1322.03 145.271V60.0604H1311.9C1305.27 60.0604 1300.48 61.9104 1297.54 65.6104C1294.71 69.3105 1292.97 74.0988 1292.32 79.9754H1288.56V53.0411Z" fill="black"></path>
<path d="M1401.32 161.595V157.84C1404.47 157.623 1406.76 156.806 1408.17 155.392C1409.59 153.977 1410.3 150.603 1410.3 145.271V69.365C1410.3 64.0325 1409.48 60.6588 1407.85 59.2441C1406.32 57.7205 1403.33 56.9044 1398.87 56.7956V53.0411H1479.02V75.8945H1475.26C1475.05 71.215 1473.41 67.406 1470.37 64.4677C1467.43 61.5294 1462.86 60.0604 1456.66 60.0604H1443.6C1441.31 60.0604 1439.52 60.659 1438.21 61.856C1437.01 63.0531 1436.41 65.5561 1436.41 69.365V101.523C1437.28 100.87 1438.32 100.435 1439.52 100.217C1440.82 99.9994 1442.34 99.8906 1444.09 99.8906H1459.92C1463.18 99.8906 1465.91 98.9656 1468.08 97.1156C1470.26 95.2655 1471.4 92.7081 1471.51 89.4433H1475.26V117.194H1471.51C1471.4 113.167 1470.26 110.447 1468.08 109.032C1465.91 107.617 1463.18 106.91 1459.92 106.91H1444.41C1441.47 106.91 1439.41 107.4 1438.21 108.379C1437.01 109.358 1436.41 111.263 1436.41 114.092V145.271C1436.41 149.08 1437.23 151.583 1438.86 152.78C1440.6 153.977 1443.92 154.576 1448.82 154.576H1464.33C1470.86 154.576 1476.03 152.617 1479.83 148.699C1483.64 144.781 1485.77 140.102 1486.2 134.66H1489.96L1488.65 161.595H1401.32Z" fill="black"></path>
<path d="M1597.02 145.271C1598.54 148.971 1599.8 151.692 1600.78 153.433C1601.86 155.174 1603.01 156.317 1604.2 156.861C1605.4 157.296 1606.87 157.623 1608.61 157.84V161.595H1563.07V157.84C1567.42 157.623 1569.81 156.317 1570.25 153.923C1570.79 151.528 1570.41 148.644 1569.11 145.271L1560.95 124.05C1560.29 124.594 1559.42 124.975 1558.33 125.193C1557.35 125.301 1556.27 125.356 1555.07 125.356H1536.62C1534.34 125.356 1532.6 125.628 1531.4 126.172C1530.2 126.716 1529.17 128.076 1528.3 130.253L1522.42 145.271C1521.01 148.862 1521.12 151.8 1522.75 154.086C1524.38 156.371 1527.59 157.623 1532.38 157.84V161.595H1502.67V157.84C1505.06 157.623 1507.08 156.426 1508.71 154.249C1510.45 151.964 1512.03 148.971 1513.44 145.271L1544.78 65.937C1545.98 63.1075 1547.02 60.3324 1547.89 57.6118C1548.87 54.8911 1549.74 52.116 1550.5 49.2866H1559.97C1560.73 52.116 1561.6 54.8911 1562.58 57.6118C1563.56 60.3324 1564.59 63.1075 1565.68 65.937L1597.02 145.271ZM1554.25 118.337C1555.78 118.337 1556.76 118.119 1557.19 117.684C1557.73 117.139 1557.68 116.051 1557.03 114.419L1545.76 86.505H1545.44L1532.71 118.989C1533.25 118.663 1533.9 118.5 1534.66 118.5C1535.43 118.391 1536.3 118.337 1537.28 118.337H1554.25Z" fill="black"></path>
<path d="M1658.98 164.043C1647.99 164.043 1639.78 160.942 1634.33 154.739C1628.89 148.427 1626.17 140.483 1626.17 130.906V69.365C1626.17 64.0325 1625.36 60.6588 1623.72 59.2441C1622.2 57.7205 1619.21 56.9044 1614.75 56.7956V53.0411H1661.27V56.7956C1658.11 56.9044 1655.83 57.7205 1654.41 59.2441C1653 60.6588 1652.29 64.0325 1652.29 69.365V129.274C1652.29 134.606 1653.38 138.905 1655.55 142.169C1657.84 145.325 1661.7 146.903 1667.14 146.903C1673.02 146.903 1678.14 145.162 1682.49 141.68C1686.84 138.088 1690.22 133.409 1692.61 127.641C1695.11 121.873 1696.36 115.67 1696.36 109.032V69.365C1696.36 64.0325 1695.55 60.6588 1693.92 59.2441C1692.39 57.7205 1689.4 56.9044 1684.94 56.7956V53.0411H1730.64V56.7956C1727.49 56.9044 1725.2 57.7205 1723.79 59.2441C1722.37 60.6588 1721.67 64.0325 1721.67 69.365V146.903C1721.67 151.365 1722.48 154.249 1724.11 155.555C1725.75 156.861 1728.74 157.623 1733.09 157.84V161.595H1699.96C1699.3 159.854 1698.81 157.786 1698.49 155.392C1698.16 152.889 1698 149.515 1698 145.271V131.722H1697.67C1694.3 142.061 1689.4 150.059 1682.98 155.718C1676.67 161.268 1668.67 164.043 1658.98 164.043Z" fill="black"></path>
<path d="M1254.98 41.8057C1252.36 40.7155 1249.91 39.4007 1247.63 37.8615C1245.35 36.3223 1243.24 34.7511 1241.3 33.1478C1239.36 34.7511 1237.25 36.3223 1234.97 37.8615C1232.69 39.4007 1230.25 40.7155 1227.63 41.8057L1225.22 40.94C1228.18 37.9258 1231 34.6229 1233.71 31.0315C1235.65 28.4806 1237.57 25.8049 1239.3 23.0042C1240.26 21.4629 1242.59 21.4695 1243.5 23.0332C1245.14 25.8233 1246.89 28.4894 1248.77 31.0315C1251.56 34.6229 1254.43 37.9258 1257.38 40.94L1254.98 41.8057Z" fill="black"></path>
</svg>