<svg width="925" height="678" viewBox="0 0 925 678" fill="none" xmlns="http://www.w3.org/2000/svg">
<path d="M72.648 628.828C60.4529 628.828 49.6515 626.389 40.2438 621.511C30.8362 616.633 23.4611 609.781 18.1184 600.954C12.7758 592.011 10.1045 581.674 10.1045 569.944C10.1045 560.304 11.8467 551.709 15.331 544.16C18.8153 536.494 23.5772 529.932 29.6167 524.473C35.7723 519.014 42.799 514.891 50.6968 512.104C58.7107 509.2 67.2473 507.748 76.3065 507.748C83.159 507.748 89.7211 508.387 95.9929 509.665C102.265 510.942 107.259 512.452 110.975 514.194V541.721H106.968C104.646 534.636 101.858 529.235 98.6061 525.518C95.3541 521.686 91.6956 519.014 87.6305 517.505C83.6816 515.995 79.5005 515.24 75.087 515.24C52.6712 515.24 41.4634 531.5 41.4634 564.02C41.4634 574.705 42.5667 584.403 44.7735 593.114C47.0963 601.825 50.6387 608.736 55.4006 613.846C60.2787 618.84 66.4924 621.337 74.0417 621.337C80.1973 621.337 85.7722 619.827 90.7664 616.808C95.7606 613.672 99.9998 609.549 103.484 604.438C107.085 599.328 109.64 593.811 111.15 587.888H115.157L113.763 614.369C109.93 618.55 104.529 622.034 97.5608 624.821C90.5922 627.493 82.2879 628.828 72.648 628.828ZM136.595 626.215V622.208C139.963 621.976 142.402 621.105 143.912 619.595C145.422 618.085 146.177 614.485 146.177 608.794V527.783C146.177 522.092 145.305 518.492 143.563 516.982C141.937 515.356 138.743 514.485 133.981 514.369V510.362H183.633V514.369C180.265 514.485 177.826 515.356 176.316 516.982C174.806 518.492 174.051 522.092 174.051 527.783V558.619C174.98 557.923 176.084 557.458 177.361 557.226C178.755 556.993 180.381 556.877 182.239 556.877H215.166C218.302 556.877 220.509 556.355 221.786 555.309C223.064 554.264 223.703 552.174 223.703 549.038V527.783C223.703 522.092 222.831 518.492 221.089 516.982C219.463 515.356 216.269 514.485 211.507 514.369V510.362H261.159V514.369C257.791 514.485 255.352 515.356 253.842 516.982C252.332 518.492 251.577 522.092 251.577 527.783V608.794C251.577 614.485 252.448 618.085 254.19 619.595C255.932 621.105 259.126 621.976 263.772 622.208V626.215H214.121V622.208C217.489 621.976 219.928 621.105 221.438 619.595C222.948 618.085 223.703 614.485 223.703 608.794V562.452C222.773 563.265 221.612 563.788 220.218 564.02C218.825 564.252 217.257 564.369 215.514 564.369H182.588C179.452 564.369 177.245 564.891 175.967 565.937C174.69 566.982 174.051 569.014 174.051 572.034V608.794C174.051 614.485 174.922 618.085 176.664 619.595C178.406 621.105 181.6 621.976 186.246 622.208V626.215H136.595ZM373.538 608.794C375.164 612.743 376.499 615.646 377.545 617.504C378.706 619.363 379.926 620.582 381.203 621.163C382.481 621.628 384.049 621.976 385.907 622.208V626.215H337.301V622.208C341.947 621.976 344.502 620.582 344.966 618.027C345.547 615.472 345.14 612.394 343.747 608.794L335.036 586.146C334.339 586.726 333.41 587.133 332.248 587.365C331.203 587.481 330.042 587.539 328.764 587.539H309.078C306.639 587.539 304.78 587.83 303.503 588.41C302.225 588.991 301.122 590.443 300.193 592.766L293.921 608.794C292.411 612.626 292.527 615.762 294.269 618.201C296.012 620.64 299.438 621.976 304.548 622.208V626.215H272.841V622.208C275.396 621.976 277.545 620.698 279.287 618.376C281.145 615.936 282.829 612.743 284.339 608.794L317.789 524.125C319.066 521.105 320.17 518.143 321.099 515.24C322.144 512.336 323.073 509.374 323.886 506.355H333.991C334.804 509.374 335.733 512.336 336.778 515.24C337.823 518.143 338.927 521.105 340.088 524.125L373.538 608.794ZM327.893 580.048C329.519 580.048 330.564 579.816 331.029 579.351C331.61 578.77 331.552 577.609 330.855 575.867L318.834 546.076H318.485L304.897 580.745C305.477 580.396 306.174 580.222 306.987 580.222C307.8 580.106 308.729 580.048 309.775 580.048H327.893ZM385.437 510.362H484.74V539.107H480.733C480.037 532.836 478.178 527.725 475.159 523.776C472.139 519.827 466.97 517.853 459.653 517.853H449.026V608.794C449.026 614.485 449.897 618.085 451.639 619.595C453.382 621.105 456.575 621.976 461.221 622.208V626.215H411.57V622.208C414.938 621.976 417.377 621.105 418.887 619.595C420.397 618.085 421.152 614.485 421.152 608.794V517.853H410.35C403.265 517.853 398.155 519.827 395.019 523.776C392 527.725 390.141 532.836 389.444 539.107H385.437V510.362ZM504.033 626.215V622.208C507.402 621.976 509.841 621.105 511.35 619.595C512.86 618.085 513.615 614.485 513.615 608.794V527.783C513.615 522.092 512.744 518.492 511.002 516.982C509.376 515.356 506.182 514.485 501.42 514.369V510.362H586.96V534.752H582.953C582.721 529.758 580.979 525.693 577.727 522.557C574.591 519.421 569.713 517.853 563.093 517.853H549.155C546.716 517.853 544.8 518.492 543.406 519.769C542.129 521.047 541.49 523.718 541.49 527.783V562.104C542.419 561.407 543.522 560.942 544.8 560.71C546.194 560.478 547.82 560.362 549.678 560.362H566.577C570.061 560.362 572.965 559.374 575.288 557.4C577.611 555.426 578.83 552.696 578.946 549.212H582.953V578.829H578.946C578.83 574.531 577.611 571.628 575.288 570.118C572.965 568.608 570.061 567.853 566.577 567.853H550.026C546.89 567.853 544.684 568.376 543.406 569.421C542.129 570.466 541.49 572.499 541.49 575.518V608.794C541.49 612.859 542.361 615.53 544.103 616.808C545.961 618.085 549.504 618.724 554.73 618.724H571.281C578.249 618.724 583.766 616.633 587.831 612.452C591.896 608.271 594.161 603.277 594.626 597.47H598.633L597.239 626.215H504.033ZM711.156 608.794C712.782 612.743 714.117 615.646 715.163 617.504C716.324 619.363 717.543 620.582 718.821 621.163C720.099 621.628 721.667 621.976 723.525 622.208V626.215H674.919V622.208C679.564 621.976 682.12 620.582 682.584 618.027C683.165 615.472 682.758 612.394 681.365 608.794L672.654 586.146C671.957 586.726 671.028 587.133 669.866 587.365C668.821 587.481 667.66 587.539 666.382 587.539H646.696C644.257 587.539 642.398 587.83 641.121 588.41C639.843 588.991 638.74 590.443 637.811 592.766L631.539 608.794C630.029 612.626 630.145 615.762 631.887 618.201C633.63 620.64 637.056 621.976 642.166 622.208V626.215H610.459V622.208C613.014 621.976 615.163 620.698 616.905 618.376C618.763 615.936 620.447 612.743 621.957 608.794L655.407 524.125C656.684 521.105 657.787 518.143 658.717 515.24C659.762 512.336 660.691 509.374 661.504 506.355H671.609C672.422 509.374 673.351 512.336 674.396 515.24C675.441 518.143 676.545 521.105 677.706 524.125L711.156 608.794ZM665.511 580.048C667.137 580.048 668.182 579.816 668.647 579.351C669.228 578.77 669.17 577.609 668.473 575.867L656.452 546.076H656.103L642.515 580.745C643.095 580.396 643.792 580.222 644.605 580.222C645.418 580.106 646.347 580.048 647.393 580.048H665.511ZM775.542 628.828C763.811 628.828 755.042 625.518 749.235 618.898C743.428 612.162 740.524 603.683 740.524 593.463V527.783C740.524 522.092 739.653 518.492 737.911 516.982C736.285 515.356 733.091 514.485 728.329 514.369V510.362H777.981V514.369C774.613 514.485 772.174 515.356 770.664 516.982C769.154 518.492 768.399 522.092 768.399 527.783V591.72C768.399 597.412 769.56 601.999 771.883 605.484C774.322 608.852 778.445 610.536 784.253 610.536C790.524 610.536 795.983 608.677 800.629 604.961C805.275 601.128 808.875 596.134 811.43 589.978C814.102 583.823 815.437 577.203 815.437 570.118V527.783C815.437 522.092 814.566 518.492 812.824 516.982C811.198 515.356 808.004 514.485 803.242 514.369V510.362H852.023V514.369C848.654 514.485 846.215 515.356 844.706 516.982C843.196 518.492 842.441 522.092 842.441 527.783V610.536C842.441 615.298 843.312 618.376 845.054 619.769C846.796 621.163 849.99 621.976 854.636 622.208V626.215H819.27C818.573 624.357 818.051 622.15 817.702 619.595C817.354 616.924 817.179 613.323 817.179 608.794V594.334H816.831C813.231 605.367 808.004 613.904 801.152 619.943C794.415 625.867 785.879 628.828 775.542 628.828Z" fill="white"></path>
<path d="M636.657 133.584C629.39 162.505 611.197 181.754 586.044 195.97C552.367 214.992 515.254 221.401 476.989 223.077C474.901 223.164 472.806 223.091 470.066 223.091C480.2 221.006 489.809 219.353 499.246 217.011C524.092 210.858 547.637 201.75 568.083 186.188C607.485 156.206 612.11 112.966 579.593 75.8213C557.231 50.28 527.797 35.3767 495.871 24.8266C444.165 7.73567 391.067 4.30432 337.116 10.6988C335.522 10.889 333.928 11.1158 332.139 10.2452C345.019 7.99906 357.816 4.7872 370.801 3.7117C394.068 1.78751 417.597 -1.10243 440.745 0.433994C494.823 4.01899 547.195 15.0008 592.375 46.9072C614.108 62.2495 631.276 81.1402 636.68 107.998C636.799 108.584 639.636 121.731 636.657 133.591V133.584Z" fill="white"></path>
<path d="M284.494 144.038C290.549 124.423 305.913 113.616 323.665 105.766C359.131 90.0798 396.139 88.6239 433.857 95.9987C434.329 96.0938 434.778 96.3206 436.537 96.9645C429.898 96.5035 424.615 95.9841 419.309 95.8085C413.958 95.6329 408.577 95.5378 403.233 95.8451C373.201 97.5425 344.642 103.717 320.956 123.376C302.531 138.675 298.265 160.894 310.306 177.049C319.631 189.545 332.795 197.22 347.127 202.378C365.088 208.838 383.618 213.777 401.909 219.381C402.597 219.593 403.271 219.835 403.84 220.859C398.287 220.296 392.704 219.886 387.173 219.125C381.627 218.364 376.082 217.457 370.619 216.264C348.362 211.399 326.831 204.529 307.432 192.494C296.401 185.653 288.611 176.434 284.659 163.74C282.339 156.278 284.397 144.33 284.494 144.03V144.038Z" fill="white"></path>
<path d="M418.621 275.432C423.74 253.417 426.426 232.624 423.68 211.699C422.258 200.857 419.407 189.948 415.41 179.734C410.95 168.336 401.894 161.509 387.653 162.234C399.342 145.333 413.509 131.966 431.456 121.723C429.42 134.256 430.857 145.794 436.657 156.615C443.317 169.045 454.236 172.872 467.034 166.594C485.736 157.427 498.743 142.516 508.607 124.862C510.365 121.716 511.181 122.111 513.194 124.335C522.384 134.505 526.261 146.555 526.516 159.885C526.531 160.646 525.58 162.095 525.056 162.102C506.96 162.431 494.14 172.872 482.114 184.139C455.396 209.168 435.893 239.165 420.499 271.854C420.147 272.6 419.736 273.317 418.628 275.424L418.621 275.432Z" fill="white"></path>
<path d="M460.157 158.027C448.243 157.99 441.223 150.199 442.653 138.602C444.568 123.026 462.567 108.671 478.53 109.996C489.15 110.873 495.541 118.731 494.089 129.128C491.979 144.177 475.664 158.071 460.165 158.027H460.157Z" fill="white"></path>
<path d="M246.867 332.671H279.876V336.731C277.287 336.966 274.875 338.378 272.639 340.967C270.521 343.438 268.461 346.557 266.461 350.323L244.749 390.568C243.808 392.451 242.984 394.157 242.278 395.687C241.69 397.217 241.395 399.512 241.395 402.571V432.403C241.395 438.169 242.278 441.817 244.043 443.347C245.808 444.877 249.044 445.759 253.752 445.995V450.054H203.444V445.995C206.857 445.759 209.328 444.877 210.858 443.347C212.388 441.817 213.153 438.169 213.153 432.403V402.571C213.153 399.512 212.917 397.217 212.447 395.687C211.976 394.157 211.211 392.451 210.152 390.568L187.381 350.323C185.145 346.321 183.262 343.38 181.733 341.497C180.321 339.614 178.908 338.378 177.496 337.79C176.084 337.201 174.319 336.848 172.201 336.731V332.671H224.45V336.731C219.272 336.966 216.506 338.378 216.153 340.967C215.918 343.438 216.859 346.557 218.978 350.323L237.335 384.037H237.688L256.046 350.323C258.164 346.439 258.459 343.262 256.929 340.791C255.399 338.319 252.045 336.966 246.867 336.731V332.671ZM326.263 451.467C325.792 448.407 325.321 445.877 324.851 443.876C324.38 441.758 323.674 439.169 322.732 436.11L298.373 350.323C297.196 346.204 296.137 343.262 295.196 341.497C294.254 339.614 293.195 338.378 292.018 337.79C290.842 337.201 289.312 336.848 287.429 336.731V332.671H337.207L337.03 336.731C332.441 336.966 329.558 338.378 328.381 340.967C327.204 343.438 327.204 346.557 328.381 350.323L344.62 405.925H344.973L376.746 331.259H389.103C390.162 334.554 391.162 337.731 392.103 340.791C393.163 343.85 394.457 347.028 395.987 350.323L420.699 405.925H421.405L438.704 350.323C439.998 346.321 439.586 343.144 437.468 340.791C435.468 338.319 431.702 336.966 426.171 336.731L426.348 332.671H461.121V336.731C458.297 336.966 455.826 338.319 453.708 340.791C451.707 343.144 450.119 346.321 448.942 350.323L423.523 436.11C422.7 439.169 422.052 441.758 421.582 443.876C421.111 445.877 420.581 448.407 419.993 451.467H407.637C406.931 448.407 406.225 445.877 405.519 443.876C404.813 441.758 403.812 439.169 402.518 436.11L373.216 368.857H372.687L343.738 436.11C342.443 439.287 341.443 441.876 340.737 443.876C340.149 445.877 339.501 448.407 338.795 451.467H326.263ZM551.348 432.403C552.995 436.404 554.348 439.346 555.408 441.229C556.584 443.111 557.82 444.347 559.114 444.935C560.409 445.406 561.998 445.759 563.88 445.995V450.054H514.632V445.995C519.339 445.759 521.928 444.347 522.399 441.758C522.987 439.169 522.575 436.051 521.163 432.403L512.337 409.456C511.631 410.044 510.69 410.456 509.513 410.691C508.454 410.809 507.277 410.868 505.983 410.868H486.036C483.565 410.868 481.682 411.162 480.388 411.75C479.094 412.339 477.976 413.81 477.034 416.163L470.68 432.403C469.15 436.286 469.267 439.463 471.033 441.935C472.798 444.406 476.269 445.759 481.447 445.995V450.054H449.321V445.995C451.91 445.759 454.087 444.465 455.852 442.111C457.735 439.64 459.441 436.404 460.971 432.403L494.862 346.616C496.157 343.556 497.275 340.555 498.216 337.613C499.275 334.671 500.217 331.671 501.04 328.611H511.278C512.102 331.671 513.044 334.671 514.103 337.613C515.162 340.555 516.28 343.556 517.456 346.616L551.348 432.403ZM505.1 403.278C506.748 403.278 507.807 403.042 508.278 402.571C508.866 401.983 508.807 400.806 508.101 399.041L495.921 368.857H495.568L481.8 403.984C482.388 403.631 483.095 403.454 483.918 403.454C484.742 403.336 485.683 403.278 486.743 403.278H505.1ZM637.95 451.467C637.008 448.76 635.832 445.995 634.42 443.17C633.125 440.228 631.36 436.404 629.124 431.697L597.351 365.326H596.998L593.821 432.403C593.703 436.404 594.644 439.64 596.645 442.111C598.645 444.465 602.293 445.759 607.589 445.995V450.054H574.933V445.995C578.346 445.759 580.758 444.465 582.171 442.111C583.7 439.64 584.524 436.404 584.642 432.403L588.349 350.323C588.584 346.204 588.29 343.262 587.466 341.497C586.76 339.731 585.466 338.614 583.583 338.143C581.7 337.554 579.17 337.084 575.992 336.731V332.671H613.767C614.708 335.73 615.768 338.614 616.944 341.32C618.239 344.027 619.651 347.028 621.181 350.323L651.542 413.869H651.895L680.137 350.323C682.844 344.321 684.903 338.437 686.315 332.671H723.737V336.731C721.501 336.848 719.618 337.201 718.088 337.79C716.559 338.378 715.441 339.614 714.735 341.497C714.146 343.262 713.911 346.204 714.029 350.323L717.735 432.403C717.971 436.168 718.442 438.993 719.148 440.876C719.971 442.758 721.266 444.053 723.031 444.759C724.796 445.347 727.15 445.759 730.092 445.995V450.054H679.784V445.995C683.55 445.759 686.139 444.877 687.551 443.347C689.081 441.817 689.728 438.169 689.493 432.403L686.492 360.207H686.139L654.189 431.697C651.954 436.639 650.306 440.523 649.247 443.347C648.306 446.053 647.482 448.76 646.776 451.467H637.95Z" fill="white"></path>
<path d="M347.511 502.822C344.364 501.511 341.421 499.93 338.681 498.079C335.94 496.228 333.403 494.339 331.068 492.411C328.734 494.339 326.197 496.228 323.456 498.079C320.716 499.93 317.773 501.511 314.626 502.822L311.734 501.781C315.286 498.156 318.686 494.184 321.934 489.866C324.271 486.799 326.583 483.581 328.664 480.213C329.809 478.36 332.616 478.368 333.717 480.248C335.681 483.603 337.792 486.809 340.051 489.866C343.4 494.184 346.851 498.156 350.403 501.781L347.511 502.822Z" fill="white"></path>
</svg>