<svg width="845" height="629" viewBox="0 0 845 629" fill="none" xmlns="http://www.w3.org/2000/svg">
<path d="M62.5435 628.828C50.3484 628.828 39.547 626.389 30.1393 621.511C20.7317 616.633 13.3565 609.781 8.01392 600.954C2.67131 592.011 0 581.674 0 569.943C0 560.303 1.74216 551.709 5.22647 544.159C8.71079 536.494 13.4727 529.932 19.5122 524.473C25.6678 519.014 32.6945 514.891 40.5923 512.104C48.6062 509.2 57.1428 507.748 66.202 507.748C73.0545 507.748 79.6166 508.387 85.8884 509.665C92.1601 510.942 97.1543 512.452 100.871 514.194V541.72H96.864C94.5411 534.636 91.7536 529.235 88.5016 525.518C85.2496 521.686 81.5911 519.014 77.526 517.504C73.5771 515.995 69.3959 515.24 64.9825 515.24C42.5667 515.24 31.3588 531.5 31.3588 564.02C31.3588 574.705 32.4622 584.403 34.6689 593.114C36.9918 601.825 40.5342 608.735 45.2961 613.846C50.1741 618.84 56.3878 621.337 63.9372 621.337C70.0928 621.337 75.6677 619.827 80.6619 616.807C85.6561 613.672 89.8953 609.549 93.3797 604.438C96.9801 599.328 99.5353 593.811 101.045 587.888H105.052L103.658 614.368C99.8256 618.55 94.4249 622.034 87.4563 624.821C80.4877 627.493 72.1834 628.828 62.5435 628.828Z" fill="black"></path>
<path d="M126.49 626.215V622.208C129.858 621.976 132.297 621.105 133.807 619.595C135.317 618.085 136.072 614.485 136.072 608.794V527.783C136.072 522.092 135.201 518.492 133.459 516.982C131.833 515.356 128.639 514.485 123.877 514.369V510.362H173.528V514.369C170.16 514.485 167.721 515.356 166.211 516.982C164.701 518.492 163.947 522.092 163.947 527.783V558.619C164.876 557.923 165.979 557.458 167.257 557.226C168.65 556.993 170.276 556.877 172.135 556.877H205.061C208.197 556.877 210.404 556.355 211.682 555.309C212.959 554.264 213.598 552.173 213.598 549.038V527.783C213.598 522.092 212.727 518.492 210.985 516.982C209.359 515.356 206.165 514.485 201.403 514.369V510.362H251.054V514.369C247.686 514.485 245.247 515.356 243.737 516.982C242.228 518.492 241.473 522.092 241.473 527.783V608.794C241.473 614.485 242.344 618.085 244.086 619.595C245.828 621.105 249.022 621.976 253.668 622.208V626.215H204.016V622.208C207.384 621.976 209.823 621.105 211.333 619.595C212.843 618.085 213.598 614.485 213.598 608.794V562.452C212.669 563.265 211.507 563.788 210.114 564.02C208.72 564.252 207.152 564.369 205.41 564.369H172.483C169.347 564.369 167.141 564.891 165.863 565.936C164.585 566.982 163.947 569.014 163.947 572.034V608.794C163.947 614.485 164.818 618.085 166.56 619.595C168.302 621.105 171.496 621.976 176.142 622.208V626.215H126.49Z" fill="black"></path>
<path d="M363.433 608.794C365.059 612.742 366.395 615.646 367.44 617.504C368.602 619.363 369.821 620.582 371.099 621.163C372.376 621.627 373.944 621.976 375.802 622.208V626.215H327.196V622.208C331.842 621.976 334.397 620.582 334.862 618.027C335.442 615.472 335.036 612.394 333.642 608.794L324.931 586.146C324.235 586.726 323.305 587.133 322.144 587.365C321.099 587.481 319.937 587.539 318.66 587.539H298.973C296.534 587.539 294.676 587.83 293.398 588.41C292.121 588.991 291.017 590.443 290.088 592.766L283.816 608.794C282.307 612.626 282.423 615.762 284.165 618.201C285.907 620.64 289.333 621.976 294.444 622.208V626.215H262.736V622.208C265.292 621.976 267.44 620.698 269.182 618.375C271.041 615.936 272.725 612.742 274.235 608.794L307.684 524.125C308.962 521.105 310.065 518.143 310.994 515.24C312.039 512.336 312.969 509.374 313.782 506.355H323.886C324.699 509.374 325.628 512.336 326.674 515.24C327.719 518.143 328.822 521.105 329.984 524.125L363.433 608.794ZM317.789 580.048C319.415 580.048 320.46 579.816 320.924 579.351C321.505 578.77 321.447 577.609 320.75 575.867L308.729 546.076H308.381L294.792 580.745C295.373 580.396 296.07 580.222 296.883 580.222C297.696 580.106 298.625 580.048 299.67 580.048H317.789Z" fill="black"></path>
<path d="M375.333 510.362H474.636V539.107H470.629C469.932 532.835 468.074 527.725 465.054 523.776C462.034 519.827 456.866 517.853 449.549 517.853H438.922V608.794C438.922 614.485 439.793 618.085 441.535 619.595C443.277 621.105 446.471 621.976 451.117 622.208V626.215H401.465V622.208C404.833 621.976 407.272 621.105 408.782 619.595C410.292 618.085 411.047 614.485 411.047 608.794V517.853H400.246C393.161 517.853 388.051 519.827 384.915 523.776C381.895 527.725 380.037 532.835 379.34 539.107H375.333V510.362Z" fill="black"></path>
<path d="M493.929 626.215V622.208C497.297 621.976 499.736 621.105 501.246 619.595C502.756 618.085 503.511 614.485 503.511 608.794V527.783C503.511 522.092 502.64 518.492 500.898 516.982C499.272 515.356 496.078 514.485 491.316 514.369V510.362H576.856V534.752H572.849C572.616 529.758 570.874 525.693 567.622 522.557C564.486 519.421 559.608 517.853 552.988 517.853H539.051C536.612 517.853 534.695 518.492 533.302 519.769C532.024 521.047 531.385 523.718 531.385 527.783V562.104C532.314 561.407 533.418 560.942 534.695 560.71C536.089 560.478 537.715 560.362 539.573 560.362H556.472C559.957 560.362 562.86 559.374 565.183 557.4C567.506 555.425 568.726 552.696 568.842 549.212H572.849V578.828H568.842C568.726 574.531 567.506 571.627 565.183 570.118C562.86 568.608 559.957 567.853 556.472 567.853H539.922C536.786 567.853 534.579 568.375 533.302 569.421C532.024 570.466 531.385 572.499 531.385 575.518V608.794C531.385 612.859 532.256 615.53 533.999 616.807C535.857 618.085 539.399 618.724 544.626 618.724H561.176C568.145 618.724 573.662 616.633 577.727 612.452C581.792 608.271 584.057 603.277 584.521 597.47H588.528L587.134 626.215H493.929Z" fill="black"></path>
<path d="M701.051 608.794C702.677 612.742 704.013 615.646 705.058 617.504C706.219 619.363 707.439 620.582 708.717 621.163C709.994 621.627 711.562 621.976 713.42 622.208V626.215H664.814V622.208C669.46 621.976 672.015 620.582 672.48 618.027C673.06 615.472 672.654 612.394 671.26 608.794L662.549 586.146C661.853 586.726 660.923 587.133 659.762 587.365C658.717 587.481 657.555 587.539 656.278 587.539H636.591C634.152 587.539 632.294 587.83 631.016 588.41C629.739 588.991 628.635 590.443 627.706 592.766L621.434 608.794C619.925 612.626 620.041 615.762 621.783 618.201C623.525 620.64 626.951 621.976 632.062 622.208V626.215H600.354V622.208C602.91 621.976 605.058 620.698 606.8 618.375C608.659 615.936 610.343 612.742 611.853 608.794L645.302 524.125C646.58 521.105 647.683 518.143 648.612 515.24C649.657 512.336 650.587 509.374 651.4 506.355H661.504C662.317 509.374 663.246 512.336 664.292 515.24C665.337 518.143 666.44 521.105 667.602 524.125L701.051 608.794ZM655.407 580.048C657.033 580.048 658.078 579.816 658.542 579.351C659.123 578.77 659.065 577.609 658.368 575.867L646.347 546.076H645.999L632.41 580.745C632.991 580.396 633.688 580.222 634.501 580.222C635.314 580.106 636.243 580.048 637.288 580.048H655.407Z" fill="black"></path>
<path d="M765.437 628.828C753.707 628.828 744.938 625.518 739.131 618.898C733.324 612.162 730.42 603.683 730.42 593.463V527.783C730.42 522.092 729.549 518.492 727.807 516.982C726.181 515.356 722.987 514.485 718.225 514.369V510.362H767.876V514.369C764.508 514.485 762.069 515.356 760.559 516.982C759.049 518.492 758.294 522.092 758.294 527.783V591.72C758.294 597.411 759.456 601.999 761.779 605.483C764.218 608.852 768.341 610.536 774.148 610.536C780.42 610.536 785.879 608.677 790.524 604.961C795.17 601.128 798.771 596.134 801.326 589.978C803.997 583.823 805.333 577.202 805.333 570.118V527.783C805.333 522.092 804.462 518.492 802.72 516.982C801.094 515.356 797.9 514.485 793.138 514.369V510.362H841.918V514.369C838.55 514.485 836.111 515.356 834.601 516.982C833.091 518.492 832.336 522.092 832.336 527.783V610.536C832.336 615.298 833.207 618.375 834.949 619.769C836.692 621.163 839.886 621.976 844.531 622.208V626.215H809.166C808.469 624.357 807.946 622.15 807.598 619.595C807.249 616.924 807.075 613.323 807.075 608.794V594.334H806.727C803.126 605.367 797.9 613.904 791.047 619.943C784.311 625.867 775.774 628.828 765.437 628.828Z" fill="black"></path>
<path d="M626.553 133.583C619.286 162.505 601.093 181.754 575.939 195.97C542.262 214.992 505.15 221.401 466.885 223.077C464.797 223.164 462.701 223.091 459.962 223.091C470.095 221.006 479.704 219.353 489.142 217.011C513.988 210.858 537.532 201.75 557.978 186.188C597.381 156.205 602.006 112.966 569.488 75.8212C547.126 50.2799 517.692 35.3766 485.766 24.8265C434.06 7.73558 380.962 4.30423 327.011 10.6987C325.417 10.8889 323.823 11.1157 322.034 10.2451C334.914 7.99897 347.712 4.78711 360.696 3.71161C383.963 1.78742 407.493 -1.10252 430.64 0.433904C484.719 4.0189 537.091 15.0007 582.271 46.9071C604.004 62.2494 621.172 81.1401 626.575 107.998C626.695 108.584 629.531 121.731 626.553 133.591V133.583Z" fill="black"></path>
<path d="M274.39 144.038C280.444 124.423 295.809 113.616 313.56 105.766C349.026 90.0797 386.034 88.6238 423.753 95.9986C424.224 96.0937 424.673 96.3205 426.432 96.9644C419.794 96.5035 414.51 95.984 409.204 95.8084C403.853 95.6328 398.472 95.5377 393.129 95.845C363.096 97.5424 334.538 103.717 310.851 123.376C292.426 138.675 288.16 160.894 300.202 177.049C309.527 189.545 322.691 197.22 337.022 202.378C354.984 208.838 373.514 213.777 391.804 219.381C392.493 219.593 393.166 219.835 393.735 220.859C388.182 220.295 382.599 219.886 377.068 219.125C371.523 218.364 365.977 217.457 360.514 216.264C338.257 211.399 316.726 204.529 297.328 192.493C286.297 185.653 278.506 176.434 274.555 163.74C272.235 156.278 274.293 144.33 274.39 144.03V144.038Z" fill="black"></path>
<path d="M408.516 275.432C413.635 253.417 416.322 232.624 413.575 211.699C412.153 200.856 409.302 189.948 405.306 179.734C400.845 168.336 391.79 161.509 377.548 162.234C389.238 145.333 403.405 131.966 421.351 121.723C419.315 134.256 420.752 145.794 426.552 156.615C433.213 169.045 444.132 172.872 456.929 166.594C475.631 157.427 488.638 142.516 498.502 124.862C500.261 121.716 501.077 122.111 503.09 124.335C512.28 134.505 516.157 146.555 516.411 159.885C516.426 160.646 515.476 162.095 514.952 162.102C496.856 162.431 484.036 172.872 472.009 184.139C445.292 209.168 425.789 239.165 410.395 271.854C410.043 272.6 409.631 273.317 408.524 275.424L408.516 275.432Z" fill="black"></path>
<path d="M450.053 158.027C438.138 157.99 431.119 150.199 432.548 138.602C434.464 123.026 452.463 108.671 468.426 109.995C479.045 110.873 485.436 118.731 483.985 129.128C481.874 144.177 465.559 158.071 450.06 158.027H450.053Z" fill="black"></path>
<path d="M236.763 332.671H269.771V336.731C267.183 336.966 264.77 338.378 262.534 340.967C260.416 343.438 258.357 346.557 256.356 350.322L234.645 390.568C233.703 392.451 232.879 394.157 232.173 395.687C231.585 397.217 231.291 399.512 231.291 402.571V432.403C231.291 438.169 232.173 441.817 233.939 443.347C235.704 444.877 238.94 445.759 243.647 445.995V450.054H193.34V445.995C196.752 445.759 199.224 444.877 200.753 443.347C202.283 441.817 203.048 438.169 203.048 432.403V402.571C203.048 399.512 202.813 397.217 202.342 395.687C201.871 394.157 201.106 392.451 200.047 390.568L177.277 350.322C175.041 346.321 173.158 343.379 171.628 341.497C170.216 339.614 168.804 338.378 167.392 337.79C165.98 337.201 164.214 336.848 162.096 336.731V332.671H214.345V336.731C209.167 336.966 206.402 338.378 206.049 340.967C205.814 343.438 206.755 346.557 208.873 350.322L227.231 384.037H227.584L245.942 350.322C248.06 346.439 248.354 343.262 246.824 340.79C245.294 338.319 241.941 336.966 236.763 336.731V332.671Z" fill="black"></path>
<path d="M316.158 451.467C315.687 448.407 315.217 445.877 314.746 443.876C314.275 441.758 313.569 439.169 312.628 436.11L288.268 350.322C287.092 346.204 286.033 343.262 285.091 341.497C284.15 339.614 283.091 338.378 281.914 337.79C280.737 337.201 279.207 336.848 277.324 336.731V332.671H327.102L326.926 336.731C322.336 336.966 319.453 338.378 318.276 340.967C317.1 343.438 317.1 346.557 318.276 350.322L334.516 405.925H334.869L366.642 331.259H378.998C380.057 334.554 381.057 337.731 381.999 340.79C383.058 343.85 384.352 347.027 385.882 350.322L410.595 405.925H411.301L428.599 350.322C429.894 346.321 429.482 343.144 427.364 340.79C425.363 338.319 421.597 336.966 416.067 336.731L416.243 332.671H451.017V336.731C448.193 336.966 445.721 338.319 443.603 340.79C441.603 343.144 440.014 346.321 438.837 350.322L413.419 436.11C412.595 439.169 411.948 441.758 411.477 443.876C411.006 445.877 410.477 448.407 409.889 451.467H397.532C396.826 448.407 396.12 445.877 395.414 443.876C394.708 441.758 393.708 439.169 392.413 436.11L363.112 368.857H362.582L333.633 436.11C332.339 439.287 331.339 441.876 330.633 443.876C330.044 445.877 329.397 448.407 328.691 451.467H316.158Z" fill="black"></path>
<path d="M541.243 432.403C542.891 436.404 544.244 439.346 545.303 441.229C546.48 443.111 547.715 444.347 549.01 444.935C550.304 445.406 551.893 445.759 553.776 445.995V450.054H504.528V445.995C509.235 445.759 511.824 444.347 512.294 441.758C512.883 439.169 512.471 436.051 511.059 432.403L502.233 409.456C501.527 410.044 500.585 410.456 499.409 410.691C498.35 410.809 497.173 410.868 495.878 410.868H475.932C473.461 410.868 471.578 411.162 470.283 411.75C468.989 412.339 467.871 413.81 466.93 416.163L460.575 432.403C459.045 436.286 459.163 439.463 460.928 441.935C462.693 444.406 466.165 445.759 471.343 445.995V450.054H439.216V445.995C441.805 445.759 443.982 444.465 445.748 442.111C447.63 439.64 449.337 436.404 450.867 432.403L484.758 346.616C486.052 343.556 487.17 340.555 488.112 337.613C489.171 334.671 490.112 331.67 490.936 328.611H501.174C501.998 331.67 502.939 334.671 503.998 337.613C505.057 340.555 506.175 343.556 507.352 346.616L541.243 432.403ZM494.996 403.277C496.643 403.277 497.702 403.042 498.173 402.571C498.761 401.983 498.703 400.806 497.997 399.041L485.817 368.857H485.464L471.696 403.984C472.284 403.63 472.99 403.454 473.814 403.454C474.638 403.336 475.579 403.277 476.638 403.277H494.996Z" fill="black"></path>
<path d="M627.845 451.467C626.904 448.76 625.727 445.994 624.315 443.17C623.021 440.228 621.255 436.404 619.02 431.697L587.247 365.326H586.893L583.716 432.403C583.599 436.404 584.54 439.64 586.54 442.111C588.541 444.465 592.189 445.759 597.484 445.995V450.054H564.829V445.995C568.242 445.759 570.654 444.465 572.066 442.111C573.596 439.64 574.42 436.404 574.537 432.403L578.244 350.322C578.479 346.204 578.185 343.262 577.362 341.497C576.656 339.731 575.361 338.613 573.478 338.143C571.595 337.554 569.065 337.084 565.888 336.731V332.671H603.663C604.604 335.73 605.663 338.613 606.84 341.32C608.134 344.027 609.546 347.027 611.076 350.322L641.437 413.868H641.79L670.033 350.322C672.739 344.321 674.799 338.437 676.211 332.671H713.633V336.731C711.397 336.848 709.514 337.201 707.984 337.79C706.454 338.378 705.336 339.614 704.63 341.497C704.042 343.262 703.806 346.204 703.924 350.322L707.631 432.403C707.866 436.168 708.337 438.993 709.043 440.876C709.867 442.758 711.161 444.053 712.926 444.759C714.692 445.347 717.045 445.759 719.987 445.995V450.054H669.68V445.995C673.446 445.759 676.034 444.877 677.447 443.347C678.976 441.817 679.624 438.169 679.388 432.403L676.387 360.207H676.034L644.085 431.697C641.849 436.639 640.202 440.522 639.142 443.347C638.201 446.053 637.377 448.76 636.671 451.467H627.845Z" fill="black"></path>
<path d="M337.406 502.822C334.26 501.511 331.316 499.93 328.576 498.079C325.836 496.228 323.298 494.339 320.964 492.411C318.63 494.339 316.092 496.228 313.352 498.079C310.612 499.93 307.668 501.511 304.522 502.822L301.629 501.781C305.182 498.156 308.582 494.184 311.829 489.866C314.167 486.798 316.479 483.581 318.56 480.213C319.705 478.36 322.512 478.368 323.612 480.248C325.576 483.603 327.688 486.809 329.946 489.866C333.296 494.184 336.746 498.156 340.299 501.781L337.406 502.822Z" fill="black"></path>
</svg>